<?xml version="1.0" ?>

<!DOCTYPE svg  PUBLIC '-//W3C//DTD SVG 1.1//EN'  'http://www.w3.org/Graphics/SVG/1.1/DTD/svg11.dtd'>

<!-- Uploaded to: SVG Repo, www.svgrepo.com, Generator: SVG Repo Mixer Tools -->
<svg fill="#333333" width="800px" height="800px" viewBox="0 0 512 512" version="1.1" xml:space="preserve" xmlns="http://www.w3.org/2000/svg" xmlns:xlink="http://www.w3.org/1999/xlink">

<g id="A_-_111_x2C__user_x2C__man_x2C__mind_programming_x2C__art">

<g>

<polygon points="281.914,256.106 276.181,276.901 332.65,276.901 332.65,219.894 313.869,224.786 288.83,231.229   "/>

<path d="M275.592,254.355l7.427-26.709c0.313-1.13,1.206-2.006,2.343-2.298l26.864-6.913l20.425-5.32v-52.06v-27.309    c-6.83-1.382-13.795-2.172-20.774-2.364V91.442l12.146,9.205c0.592,0.449,1.288,0.666,1.979,0.666c0.99,0,1.971-0.448,2.615-1.299    c1.096-1.443,0.812-3.5-0.632-4.595l-17.405-13.192c-0.024-0.019-0.051-0.029-0.076-0.046c-0.055-0.041-0.113-0.077-0.172-0.114    c-0.072-0.044-0.143-0.085-0.219-0.124c-0.057-0.03-0.112-0.062-0.17-0.087c-0.059-0.026-0.121-0.048-0.182-0.072    c-0.076-0.029-0.153-0.054-0.232-0.077c-0.065-0.02-0.131-0.041-0.199-0.057c-0.059-0.014-0.117-0.023-0.178-0.033    c-0.08-0.014-0.158-0.023-0.239-0.031c-0.077-0.007-0.151-0.015-0.229-0.017c-0.029-0.001-0.058-0.008-0.087-0.008    s-0.057,0.007-0.086,0.008c-0.076,0.002-0.152,0.009-0.23,0.017c-0.08,0.008-0.158,0.017-0.238,0.031    c-0.06,0.01-0.118,0.02-0.177,0.032c-0.067,0.016-0.134,0.037-0.2,0.057c-0.08,0.024-0.156,0.049-0.234,0.079    c-0.06,0.023-0.12,0.045-0.178,0.071c-0.058,0.026-0.113,0.057-0.17,0.087c-0.076,0.039-0.149,0.081-0.222,0.126    c-0.059,0.037-0.116,0.073-0.171,0.114c-0.023,0.017-0.051,0.027-0.074,0.045l-17.406,13.192    c-1.443,1.094-1.728,3.152-0.633,4.595c0.645,0.851,1.624,1.299,2.616,1.299c0.69,0,1.386-0.217,1.979-0.666l12.146-9.205v74.699    c0,1.811,1.467,3.279,3.278,3.28h-0.002c-1.812,0-3.28-1.468-3.28-3.28v-34.764c-30.112,0.778-58.406,12.484-80.317,33.229    l-28.213-28.212l15.061-2.05c1.795-0.245,3.052-1.898,2.808-3.693c-0.244-1.795-1.897-3.048-3.692-2.808l-21.615,2.942    c-0.03,0.003-0.058,0.016-0.089,0.021c-0.076,0.013-0.15,0.03-0.225,0.047c-0.068,0.017-0.134,0.034-0.201,0.055    c-0.067,0.021-0.136,0.04-0.203,0.065c-0.066,0.025-0.132,0.057-0.197,0.087c-0.062,0.027-0.121,0.058-0.181,0.089    c-0.067,0.037-0.135,0.07-0.2,0.111c-0.056,0.035-0.109,0.075-0.164,0.115c-0.056,0.039-0.109,0.082-0.163,0.125    c-0.064,0.052-0.127,0.103-0.187,0.16c-0.021,0.02-0.046,0.034-0.067,0.055c-0.024,0.024-0.04,0.052-0.062,0.076    c-0.048,0.051-0.093,0.104-0.138,0.158c-0.052,0.064-0.103,0.127-0.151,0.195c-0.037,0.052-0.074,0.104-0.108,0.157    c-0.035,0.057-0.065,0.115-0.097,0.173c-0.038,0.072-0.075,0.144-0.109,0.218c-0.027,0.062-0.056,0.124-0.08,0.187    c-0.022,0.059-0.039,0.118-0.058,0.178c-0.025,0.079-0.047,0.156-0.065,0.237c-0.017,0.071-0.032,0.142-0.044,0.214    c-0.004,0.029-0.016,0.055-0.02,0.084l-2.939,21.616c-0.244,1.795,1.014,3.447,2.809,3.692c0.15,0.02,0.298,0.03,0.445,0.03    c1.615,0,3.023-1.193,3.246-2.838l2.048-15.062l52.781,52.779c0.641,0.64,1.479,0.96,2.317,0.96h-0.001    c-0.839,0-1.679-0.32-2.319-0.96l-24.566-24.564c-20.947,22.091-32.548,50.635-33.272,80.316h-39.891l9.206-12.14    c1.095-1.443,0.811-3.501-0.632-4.596c-1.442-1.095-3.5-0.812-4.595,0.632l-13.196,17.402c-0.018,0.023-0.028,0.05-0.045,0.075    c-0.042,0.057-0.078,0.115-0.115,0.175c-0.044,0.07-0.083,0.14-0.122,0.212c-0.03,0.059-0.062,0.116-0.089,0.176    c-0.026,0.059-0.048,0.12-0.072,0.181c-0.028,0.075-0.053,0.149-0.076,0.226c-0.02,0.068-0.042,0.135-0.058,0.205    c-0.014,0.059-0.023,0.119-0.033,0.179c-0.014,0.078-0.023,0.156-0.03,0.234c-0.008,0.078-0.015,0.154-0.017,0.23    c-0.001,0.03-0.009,0.058-0.009,0.087c0,0.03,0.008,0.058,0.009,0.087c0.002,0.077,0.009,0.153,0.017,0.23    c0.007,0.08,0.016,0.157,0.03,0.235c0.01,0.061,0.019,0.121,0.033,0.181c0.015,0.068,0.038,0.135,0.058,0.204    c0.023,0.076,0.047,0.151,0.076,0.225c0.024,0.063,0.046,0.124,0.072,0.184c0.027,0.059,0.059,0.115,0.089,0.173    c0.038,0.073,0.078,0.143,0.121,0.213c0.038,0.061,0.076,0.119,0.117,0.177c0.017,0.024,0.027,0.05,0.044,0.073l13.196,17.406    c0.645,0.852,1.625,1.3,2.616,1.3c0.69,0,1.386-0.218,1.979-0.666c1.443-1.095,1.727-3.152,0.632-4.596l-9.207-12.146h39.912    c0.205,6.91,0.985,13.857,2.39,20.78h25.563h54.318L275.592,254.355z"/>

<path d="M339.211,165.099v50.551v64.532c0,1.811-1.469,3.279-3.28,3.279h-64.057h-53.537v188.067h118.167l-93.528-69.829    c-1.452-1.084-1.75-3.139-0.666-4.59c1.083-1.453,3.138-1.75,4.59-0.667l98.071,73.222v-81.797c0-1.812,1.469-3.28,3.28-3.28    h42.89v-65.147c0-1.811,1.47-3.279,3.281-3.279h21.354v-54.894C415.775,215.27,383.808,175.446,339.211,165.099z M302.559,419.95    c-0.645,0.86-1.631,1.314-2.629,1.314c-0.684,0-1.374-0.212-1.963-0.654l-57.339-42.915c-1.45-1.085-1.746-3.141-0.661-4.59    c1.085-1.451,3.141-1.746,4.591-0.661l57.339,42.915C303.348,416.444,303.644,418.5,302.559,419.95z M369.866,303.488    c-7.265,0-13.176-5.928-13.176-13.212c0-7.242,5.911-13.134,13.176-13.134c7.263,0,13.17,5.892,13.17,13.134    C383.036,297.561,377.129,303.488,369.866,303.488z"/>

<path d="M369.866,283.702c-3.71,0-6.616,2.887-6.616,6.574c0,3.668,2.969,6.652,6.616,6.652c3.646,0,6.61-2.984,6.61-6.652    C376.477,286.589,373.572,283.702,369.866,283.702z"/>

<path d="M110.313,238.754c-7.769,0-14.088,6.32-14.088,14.087c0,7.77,6.32,14.09,14.088,14.09c7.768,0,14.088-6.32,14.088-14.09    C124.401,245.074,118.081,238.754,110.313,238.754z M110.313,260.371h-0.002c4.15,0,7.527-3.377,7.527-7.529    c0-4.15-3.377-7.527-7.527-7.528h0.002c4.151,0,7.528,3.377,7.528,7.528C117.841,256.994,114.465,260.371,110.313,260.371z"/>

<path d="M168.372,126.725c3.757,0,7.3-1.459,9.997-4.133c5.446-5.5,5.446-14.451-0.021-19.974c-2.675-2.65-6.218-4.11-9.975-4.11    c-3.764,0-7.299,1.463-9.942,4.109c-2.685,2.658-4.162,6.208-4.162,10c0,3.79,1.478,7.341,4.149,9.986    C161.072,125.261,164.607,126.725,168.372,126.725z M173.707,107.256c2.927,2.956,2.927,7.765,0.023,10.699    c-1.438,1.425-3.342,2.21-5.358,2.21h-0.001c2.015,0,3.917-0.785,5.355-2.21c2.904-2.934,2.904-7.743-0.022-10.699    c-1.416-1.403-3.318-2.188-5.334-2.188h0.002C170.388,105.068,172.291,105.853,173.707,107.256z"/>

<path d="M308.596,68.648c7.768,0,14.088-6.32,14.088-14.088c0-7.768-6.32-14.087-14.088-14.087s-14.088,6.32-14.088,14.087    C294.508,62.329,300.828,68.648,308.596,68.648z M316.124,54.56c0,4.151-3.376,7.529-7.528,7.529h-0.001    c4.149-0.002,7.526-3.378,7.526-7.529c0-4.15-3.377-7.527-7.526-7.528h0.001C312.748,47.032,316.124,50.409,316.124,54.56z"/>

</g>

</g>

<g id="Layer_1"/>

</svg>